<?xml version="1.0" standalone="no"?>
<!DOCTYPE svg PUBLIC "-//W3C//DTD SVG 20010904//EN"
 "http://www.w3.org/TR/2001/REC-SVG-20010904/DTD/svg10.dtd">
<svg version="1.0" xmlns="http://www.w3.org/2000/svg"
 width="512.000000pt" height="512.000000pt" viewBox="0 0 512.000000 512.000000"
 preserveAspectRatio="xMidYMid meet">
<metadata>
Created by potrace 1.14, written by Peter Selinger 2001-2017
</metadata>
<g transform="translate(0.000000,512.000000) scale(0.100000,-0.100000)"
fill="#000000" stroke="none">
<path d="M1431 2943 c-105 -362 -191 -661 -191 -665 0 -5 52 -8 116 -8 89 0
115 -3 111 -12 -3 -7 -84 -187 -181 -400 -97 -213 -176 -390 -176 -393 0 -3
90 -5 201 -5 187 0 201 -1 194 -17 -51 -132 -265 -727 -262 -729 2 -3 215 164
473 371 l469 375 215 0 c327 0 474 26 654 114 261 127 417 369 472 731 22 139
14 433 -16 560 -52 227 -116 354 -244 480 -129 127 -279 201 -476 236 -93 16
-166 18 -636 19 l-531 0 -192 -657z m1162 131 c59 -10 138 -63 174 -117 73
-109 97 -218 97 -432 -1 -225 -34 -350 -120 -444 -75 -84 -81 -86 -401 -89
-156 -2 -283 -1 -283 2 0 3 27 64 60 136 33 72 60 133 60 135 0 3 -65 5 -143
5 l-144 0 114 393 c63 215 116 398 118 405 3 9 56 12 217 12 117 0 230 -3 251
-6z"/>
</g>
</svg>
