<?xml version="1.0" encoding="UTF-8"?> <svg xmlns="http://www.w3.org/2000/svg" version="1.2" viewBox="0 0 656 192" width="656" height="192"><style>.a{fill:#fff}</style><path class="a" d="m302.3 126.6h-9.7l-13.5-40.4-13 40.4h-9.6l-20-55.1 10.8-1.5 14.1 41.2 12.9-41.2h10.1l13.7 41.1 13.3-41.1h11zm38.3 0h-10.8v-56.5h17.9q9.3 0 15.9 4.2 6.6 4.2 6.6 13.9 0 9.7-7.1 14.2-7.1 4.5-16.2 4.5h-6.3zm6.7-47.5h-6.7v18.9h6.9q4.9 0 7.9-2.1 3-2.3 3.3-7 0-5.5-3-7.7-3-2.1-8.4-2.1zm76.7 47.5h-24.7v-56.5h25q13.2 0 20 8 6.9 7.9 6.9 19.9 0 13.2-7.6 21-7.6 7.6-19.6 7.6zm-0.5-44.6h-8.9v32.7h8.4q5.2 0 8.8-4.1 3.6-4.2 3.6-12.6 0-7-3.1-11.5-3-4.5-8.8-4.5zm69.1 44.6l-3.2-3.4q-2.6 1.4-6.7 3.2-4.1 1.7-9.2 1.7-8.6 0-12.1-4.7-3.5-4.8-3.5-12.1v-24.9h15.3v24.6q0 2.3 1.2 3.6 1.2 1.2 3.3 1.2 1.4 0 3.4-0.7 2-0.8 3.8-1.6v-27.1h15.3v40.2zm25.4 0h-7.7v-57.8l15.2-0.9v19.1q1.6-0.8 4-1.5 2.4-0.6 4.9-0.6 9.8 0 14.7 6 4.9 6 4.9 14.9 0 9.1-4.9 15.4-4.8 6.3-15.5 6.3-3.4 0-7-1.4-3.4-1.4-6.1-3.4zm20.2-20.4q0-3.6-2-6.3-1.9-2.7-5.6-2.7-0.9 0-2.4 0.3-1.6 0.3-2.6 0.8v14.4q1.1 1.1 2.9 1.9 1.8 0.6 3.3 0.6 3.5 0 4.9-3 1.5-3 1.5-6zm38.6 20.4h-15.3v-57.8l15.3-0.9zm17.6-45.8q-3.4 0-5.8-2.4-2.4-2.4-2.4-5.8 0-3.4 2.4-5.8 2.4-2.5 5.8-2.5 3.4 0 5.9 2.5 2.5 2.4 2.5 5.8 0 3.4-2.5 5.8-2.5 2.4-5.9 2.4zm7.7 45.8h-15.2v-40.3h15.2zm17.7-40.3l3.2 3.5q2.6-1.5 6.9-3.2 4.2-1.8 9.4-1.8 8.6 0 12.3 4.9 3.7 4.7 3.7 11.9v25h-15.3v-24.6q0-2.4-1.4-3.6-1.4-1.3-3.5-1.3-1.5 0-3.6 0.8-2.2 0.7-4.1 1.6v27.1h-15.2v-40.3z"></path><path class="a" d="m0.2 95.5q1.8-143.9 128.8-70.9 127 73-1.9 143.9-128.8 70.9-126.9-73z"></path><path d="m71 106.9h10.9l-4.8 10.5h18.2q3.5 0 5.9-1.7 2.3-1.7 3.7-4.6 1.5-2.8 2.1-6.4 0.6-3.7 0.6-7.7 0-3.9-0.6-7.5-0.6-3.7-2.1-6.5-1.4-2.9-3.7-4.6-2.4-1.8-5.9-1.8h-15.5zm-24.7 0l14.6-50h34.5q9.9 0 16.9 2.9 7.2 2.9 11.7 8.2 4.6 5.2 6.7 12.6 2.2 7.4 2.2 16.5 0 8.5-2.2 15.9-2.1 7.3-6.7 12.7-4.5 5.4-11.7 8.4-7 3.1-16.9 3.1h-13.3l-35.9 28.6 10.5-28.6h-15.2l13.7-30.3z"></path></svg> 